<?xml version="1.0" encoding="utf-8"?>
<!-- Generator: Adobe Illustrator 23.1.1, SVG Export Plug-In . SVG Version: 6.00 Build 0)  -->
<svg version="1.1" id="Слой_1" xmlns="http://www.w3.org/2000/svg" xmlns:xlink="http://www.w3.org/1999/xlink" x="0px" y="0px"
	 viewBox="0 0 566.9 566.9" style="enable-background:new 0 0 566.9 566.9;" xml:space="preserve">
<g transform="translate(0.000000,1280.000000) scale(0.100000,-0.100000)">
	<path d="M2790.1,12765.1c-390-200.6-603.4-337.8-834.7-536.6c-665.9-572.1-876.9-1273-618.2-2052.4
		c107.1-322.7,309.5-675.1,554.1-965.9l50-59.5h883.9h883.9l53.9,63.9c297,353.3,524.4,790.1,608.8,1170
		c55.5,249.9,62.5,514.9,19.5,732.4c-90.7,461.2-369.7,869.5-838.6,1227.3c-189.1,143.8-390,266.8-662,405.2
		c-34.4,17.3-64.9,32-66.4,32C2823,12781.5,2807.3,12774,2790.1,12765.1z M2963.6,11398.9c301.7-32.4,533-154,613.5-321.8
		c15.6-32.8,18-47.5,17.2-113.2c0-86.1-11.7-117.2-64.1-181.5c-42.2-51-87.5-87.9-157.1-127.4c-98.5-55.9-220.4-95.9-354-116.3
		c-54.7-8-85.2-9.8-193.8-9.8c-153.2,0.4-215.7,8-340,42.6c-210.2,58.1-361.1,166.5-415,299.2c-21.9,52.4-20.3,146,3.1,199.3
		c64.9,147.4,261,267.2,516.6,315.6C2695.6,11405.1,2851.9,11410.8,2963.6,11398.9z M2938.6,10386.8c30.5-3.6,87.5-15.5,127.4-26.6
		c206.3-58.1,324.3-193.1,279.8-321.8c-36.7-106.1-169.6-193.5-350.1-229.5c-82.8-16.9-213.4-19.5-297.8-6.2
		c-155.5,24-277.5,79.9-344.7,158c-36.7,41.7-53.1,83.9-52.4,135.4c0,51,14.1,83.4,57.1,133.2c25.8,30.6,45.3,44.8,99.3,75.5
		c41.4,23.5,85.2,43.5,114.1,51.9c45.3,13.3,128.2,30.2,168,33.7C2784.7,10394.8,2887.8,10393.1,2938.6,10386.8z M2910.5,9654.5
		c172.7-23.5,296.2-126.5,267.3-224.2c-17.2-59-68.8-106.1-149.3-137.2c-111.8-42.2-250.9-47.5-368.1-13.3
		c-40.6,11.5-113.3,50.6-137.6,73.7c-103.2,100.3-39.1,231.7,139.9,283.6C2743.2,9660.7,2822.2,9666,2910.5,9654.5z"/>
	<path d="M4304,9864.4c-18-32.4-52.4-105.6-75.8-162.9c-70.3-169.6-139.9-277.9-302.5-467.4c-43.8-51-77.4-93.2-75.8-94.1
		c11.7-5.8,195.4-73.7,339.2-125.6c614.3-221.5,1011.3-335.1,1253.6-358.6c184.4-18.2,257.1,24.9,214.9,126.5
		c-50.8,124.3-263.4,335.6-620.6,619.2c-169.6,134-638.5,484.7-690.9,516.2C4338.4,9922.1,4329.8,9911,4304,9864.4z"/>
	<path d="M1225.5,9842.2C776.9,9520,405.6,9224.4,211,9033.1c-72.7-71-156.3-171.8-184.4-221c-21.1-36.8-25.8-52.4-26.6-83.9
		c0-41.3,8.6-52.8,52.4-71.5c26.6-11.5,121.1-15.1,187.6-7.5c189.9,20.9,515.8,108.7,936.3,252.1
		c229.8,78.6,640.9,228.6,640.9,234.4c0,1.8-32,39.5-70.3,84.3c-111.8,129.2-189.1,233.5-238.4,321.4
		c-10.9,20.9-43.8,90.5-71.1,155.4c-46.1,107.9-100.8,217.5-108.6,217.5C1327.1,9914.1,1281,9881.7,1225.5,9842.2z"/>
	<path d="M2089.9,9045.5c-241.5-143.8-422-328.9-507.2-520.2c-46.1-103.9-63.3-183.8-63.3-297.8c0-106.1,12.5-173.6,52.4-275.2
		c21.9-55,94.6-186.4,103.9-186.4c3.1,0,13.3,17.3,23.4,39.1c113.3,249.5,247,416.8,363.4,455.9c45.3,15.1,96.9,15.1,142.2,0
		c188.4-62.6,384.5-406.6,573.7-1005.4c21.9-69.7,41.4-131.4,44.5-137.6c4.7-12.4,2.3-19.1,57.1,153.1
		c168,529.1,341.5,854.4,511.1,959.6c51.6,32,81.3,41.3,129.7,41.3c136.8,0,275.1-141.6,411.1-420.8c46.1-96.3,41.4-89.2,51.6-79.5
		c14.1,14.6,61,97.7,84.4,149.6c92.2,205.1,90.7,422.6-3.9,619.2c-89.9,185.5-264.9,364.4-484.6,494.5l-75.8,44.8h-678.4h-677.6
		L2089.9,9045.5z"/>
</g>
</svg>
